<svg width="64" height="64" viewBox="0 0 64 64" fill="none" xmlns="http://www.w3.org/2000/svg">
<path d="M5.33301 58.667H58.6663" stroke="#FBFBFB" stroke-width="2.5" stroke-miterlimit="10" stroke-linecap="round" stroke-linejoin="round"/>
<path d="M7.86621 58.667L7.99954 26.587C7.99954 24.9603 8.77288 23.4138 10.0529 22.4004L28.7197 7.86707C30.6397 6.37374 33.3327 6.37374 35.2794 7.86707L53.9463 22.3737C55.253 23.3871 55.9997 24.9336 55.9997 26.587V58.667" stroke="#FBFBFB" stroke-width="2.5" stroke-miterlimit="10" stroke-linejoin="round"/>
<path d="M34.6663 45.333H29.333C27.1197 45.333 25.333 47.1197 25.333 49.333V58.6663H38.6663V49.333C38.6663 47.1197 36.8797 45.333 34.6663 45.333Z" stroke="#FBFBFB" stroke-width="2.5" stroke-miterlimit="10" stroke-linejoin="round"/>
<path d="M25.333 36.6663H19.9997C18.533 36.6663 17.333 35.4663 17.333 33.9997V29.9997C17.333 28.533 18.533 27.333 19.9997 27.333H25.333C26.7997 27.333 27.9997 28.533 27.9997 29.9997V33.9997C27.9997 35.4663 26.7997 36.6663 25.333 36.6663Z" stroke="#FBFBFB" stroke-width="2.5" stroke-miterlimit="10" stroke-linejoin="round"/>
<path d="M44 36.6663H38.6667C37.2 36.6663 36 35.4663 36 33.9997V29.9997C36 28.533 37.2 27.333 38.6667 27.333H44C45.4667 27.333 46.6667 28.533 46.6667 29.9997V33.9997C46.6667 35.4663 45.4667 36.6663 44 36.6663Z" stroke="#FBFBFB" stroke-width="2.5" stroke-miterlimit="10" stroke-linejoin="round"/>
<path d="M50.6668 18.667L50.5869 10.667H38.8535" stroke="#FBFBFB" stroke-width="2.5" stroke-miterlimit="10" stroke-linecap="round" stroke-linejoin="round"/>
</svg>
